<?xml version="1.0" standalone="no"?><!DOCTYPE svg PUBLIC "-//W3C//DTD SVG 1.1//EN" "http://www.w3.org/Graphics/SVG/1.1/DTD/svg11.dtd"><svg class="icon" width="200px" height="200.00px" viewBox="0 0 1024 1024" version="1.1" xmlns="http://www.w3.org/2000/svg"><path d="M840.9088 736.3072H296.9088c-30.9248 0-57.5488-23.0912-61.8496-53.76L158.9248 142.3872c-0.0512-0.512-0.512-0.8704-1.024-0.8704H53.0432v-61.44h104.8576c30.976 0 57.5488 23.0912 61.8496 53.76l11.8272 84.1216h690.7904c18.8928 0 36.5568 8.3968 48.4352 23.04 11.9296 14.6432 16.5888 33.6384 12.7488 52.1216l-81.4592 393.3696c-5.9392 28.8768-31.6928 49.8176-61.184 49.8176zM240.2816 279.3984l55.6032 394.5472c0.0512 0.512 0.512 0.9216 1.024 0.9216h544c0.512 0 0.9216-0.3584 1.024-0.8192l81.4592-393.3696c0.0512-0.2048 0.1024-0.4608-0.2048-0.8704-0.3072-0.4096-0.6144-0.4096-0.8192-0.4096H240.2816zM353.8432 948.9408c-48.64 0-88.2176-39.5776-88.2176-88.2176s39.5776-88.2176 88.2176-88.2176 88.2176 39.5776 88.2176 88.2176-39.5776 88.2176-88.2176 88.2176z m0-115.0464c-14.7968 0-26.7776 12.032-26.7776 26.7776 0 14.7968 12.032 26.7776 26.7776 26.7776 14.7968 0 26.7776-12.032 26.7776-26.7776a26.8288 26.8288 0 0 0-26.7776-26.7776zM786.944 948.9408c-48.64 0-88.2176-39.5776-88.2176-88.2176s39.5776-88.2176 88.2176-88.2176 88.2176 39.5776 88.2176 88.2176-39.5776 88.2176-88.2176 88.2176z m0-115.0464c-14.7968 0-26.7776 12.032-26.7776 26.7776 0 14.7968 12.032 26.7776 26.7776 26.7776 14.7968 0 26.7776-12.032 26.7776-26.7776a26.8288 26.8288 0 0 0-26.7776-26.7776z" fill="#4D5254" /><path d="M384 534.3232h381.2352v61.44H384z" fill="#00A0E9" /></svg>