<?xml version="1.0" standalone="no"?><!DOCTYPE svg PUBLIC "-//W3C//DTD SVG 1.1//EN" "http://www.w3.org/Graphics/SVG/1.1/DTD/svg11.dtd"><svg class="icon" width="200px" height="200.00px" viewBox="0 0 1024 1024" version="1.1" xmlns="http://www.w3.org/2000/svg"><path d="M642.9696 966.656H384.8704v-344.2176h258.0992v344.2176z m-196.6592-61.44h135.2192v-221.3376H446.3104v221.3376z" fill="#00A0E9" /><path d="M994.304 466.2272l-431.2064-396.4928a61.73184 61.73184 0 0 0-83.5072 0.0512L36.608 471.1936l41.2672 45.5168 35.6864-32.3584v420.2496c0 34.2016 27.8016 62.0032 62.0032 62.0032h678.7072c34.2016 0 62.0032-27.8016 62.0032-62.0032V477.952l36.4032 33.4848 41.6256-45.2096z m-139.4688 438.3744c0 0.3072-0.256 0.5632-0.5632 0.5632H175.5648c-0.3072 0-0.5632-0.256-0.5632-0.5632V428.6976l345.9584-313.4976c0.2048-0.2048 0.5632-0.2048 0.6656-0.1024l333.2608 306.432v483.072z" fill="#4D5254" /></svg>