<?xml version="1.0" standalone="no"?><!DOCTYPE svg PUBLIC "-//W3C//DTD SVG 1.1//EN" "http://www.w3.org/Graphics/SVG/1.1/DTD/svg11.dtd"><svg class="icon" width="200px" height="200.00px" viewBox="0 0 1024 1024" version="1.1" xmlns="http://www.w3.org/2000/svg"><path d="M515.328 535.6544c-134.0928 0-243.1488-109.056-243.1488-243.1488s109.056-243.1488 243.1488-243.1488 243.1488 109.056 243.1488 243.1488-109.1072 243.1488-243.1488 243.1488z m0-424.8576c-100.1984 0-181.7088 81.5104-181.7088 181.7088s81.5104 181.7088 181.7088 181.7088 181.7088-81.5104 181.7088-181.7088-81.5104-181.7088-181.7088-181.7088z" fill="#4D5254" /><path d="M515.328 425.8816c-38.0928 0-76.1856-14.4896-105.216-43.52l43.4176-43.4176c34.0992 34.048 89.4976 34.048 123.5456 0l43.4176 43.4176c-28.9792 28.9792-67.072 43.52-105.1648 43.52z" fill="#00A0E9" /><path d="M773.5808 966.656H257.024c-110.8992 0-201.1136-90.2144-201.1136-201.1136s90.2144-201.1136 201.1136-201.1136h516.5568c110.8992 0 201.1136 90.2144 201.1136 201.1136s-90.2144 201.1136-201.1136 201.1136zM257.024 625.8176c-77.0048 0-139.6736 62.6688-139.6736 139.6736S180.0192 905.216 257.024 905.216h516.5568c77.0048 0 139.6736-62.6688 139.6736-139.6736s-62.6688-139.6736-139.6736-139.6736H257.024z" fill="#4D5254" /></svg>